<svg xmlns="http://www.w3.org/2000/svg" width="383" height="457" viewBox="0 0 383 457">
<g>
<path d="M 0.00 228.50 L 0.00 0.00 L 191.50 0.00 L 383.00 0.00 L 383.00 228.50 L 383.00 457.00 L 191.50 457.00 L 0.00 457.00 L 0.00 228.50 ZM 242.78 424.79 C252.84,408.72 259.62,396.87 263.66,388.27 L 268.00 379.03 L 268.00 364.27 L 267.99 349.50 L 265.82 353.00 C251.51,376.11 250.78,377.55 247.41,389.40 C245.55,395.95 243.79,401.54 243.51,401.82 C243.23,402.10 243.00,397.35 243.00,391.26 C243.00,380.87 243.28,379.34 247.49,366.35 L 251.97 352.50 L 269.75 334.50 C302.61,301.22 333.68,266.54 351.70,243.00 C359.31,233.06 366.00,223.06 366.00,221.63 C366.00,221.27 364.36,221.66 362.35,222.50 C360.34,223.34 358.51,223.84 358.29,223.62 C358.07,223.40 359.35,220.84 361.14,217.92 C365.29,211.18 365.75,205.60 363.59,188.42 C356.06,128.76 334.52,79.49 297.30,36.85 C288.83,27.14 273.46,12.58 277.01,17.62 C285.33,29.45 287.59,32.98 290.20,38.24 C292.90,43.68 295.34,56.00 293.72,56.00 C293.42,56.00 291.72,53.64 289.95,50.75 C288.17,47.86 284.65,42.80 282.12,39.50 C277.35,33.28 254.22,9.00 253.06,9.00 C252.69,9.00 251.36,15.64 250.10,23.75 C248.84,31.86 247.62,39.23 247.38,40.13 C247.08,41.23 248.56,42.79 251.94,44.96 C257.50,48.53 262.64,53.92 264.07,57.70 C265.71,61.99 264.03,62.14 259.19,58.14 C253.63,53.54 245.15,48.52 244.33,49.34 C244.01,49.66 243.41,51.73 243.01,53.95 C242.28,57.93 242.32,58.00 246.89,60.67 C260.90,68.87 272.80,85.94 278.14,105.50 C279.98,112.23 280.32,116.11 280.31,130.00 C280.29,151.70 276.95,166.51 268.86,180.81 C264.87,187.86 251.99,200.96 246.12,203.95 L 241.74 206.17 L 235.12 203.17 C224.84,198.50 219.37,196.96 207.64,195.41 C189.53,193.03 171.33,195.57 156.08,202.60 C147.92,206.37 146.83,206.32 140.46,201.96 C129.83,194.68 121.20,183.32 115.95,169.71 C110.99,156.85 109.68,148.55 109.68,130.00 C109.69,111.36 111.24,103.39 117.43,90.32 C123.34,77.84 133.61,66.07 143.28,60.66 C146.99,58.59 147.13,58.33 146.69,54.20 C146.44,51.84 146.00,49.67 145.71,49.38 C144.83,48.50 137.35,52.78 131.58,57.48 C128.56,59.94 125.83,61.53 125.51,61.02 C123.70,58.09 132.76,47.26 140.26,43.37 C142.35,42.28 142.90,41.40 142.52,39.72 C142.25,38.50 141.11,31.88 140.00,25.00 C138.89,18.12 137.76,11.53 137.49,10.34 C137.07,8.48 135.52,9.70 126.09,19.34 C111.74,34.00 105.47,41.69 97.31,54.61 C96.29,56.22 96.11,55.76 96.08,51.50 C96.03,43.81 100.28,34.97 111.72,19.02 L 113.50 16.54 L 110.39 18.74 C106.20,21.70 92.76,35.98 84.55,46.20 C67.42,67.52 49.83,99.17 41.03,124.50 C32.16,150.03 25.68,182.55 25.56,202.08 C25.50,212.35 25.60,212.82 28.79,217.96 C30.60,220.87 31.90,223.43 31.69,223.64 C31.48,223.85 29.66,223.34 27.65,222.50 C25.42,221.57 24.00,221.38 24.00,222.02 C24.00,223.81 32.48,235.98 42.10,248.00 C62.22,273.13 87.45,301.18 116.72,330.93 L 137.94 352.50 L 142.47 366.64 C146.71,379.88 147.00,381.46 146.97,391.64 C146.95,398.20 146.60,401.91 146.08,401.00 C145.61,400.17 143.77,394.33 142.00,388.00 C140.23,381.67 138.24,375.83 137.57,375.00 C136.90,374.17 133.24,368.25 129.43,361.84 L 122.50 350.17 L 122.22 364.83 L 121.94 379.48 L 126.81 389.49 C133.39,403.02 154.61,437.98 156.25,437.99 C156.66,438.00 157.00,419.14 157.00,396.08 C157.00,373.03 156.66,354.02 156.25,353.83 C155.84,353.65 151.00,348.55 145.50,342.50 C140.01,336.45 130.11,325.64 123.50,318.48 C116.90,311.32 107.41,300.97 102.41,295.48 C79.19,269.97 68.13,257.95 61.83,251.36 C55.36,244.59 52.92,241.12 56.75,244.13 C71.71,255.88 109.52,288.10 126.28,303.37 L 136.07 312.28 L 138.63 309.89 C140.04,308.58 142.08,306.27 143.15,304.77 L 145.11 302.03 L 135.46 292.80 C109.10,267.61 88.14,236.82 79.54,210.66 C73.47,192.17 74.10,190.91 81.96,205.85 C102.12,244.20 118.79,264.73 154.06,294.63 C162.55,301.83 172.59,310.95 176.36,314.88 C182.34,321.11 183.16,322.43 182.78,325.06 C182.53,326.73 182.62,328.27 182.98,328.49 C183.33,328.71 188.77,328.97 195.06,329.07 L 206.50 329.25 L 207.07 325.09 C207.79,319.87 212.83,314.54 236.00,294.52 C254.31,278.70 261.33,271.98 271.10,260.95 C284.88,245.40 297.11,226.76 311.44,199.50 L 314.07 194.50 L 313.44 199.45 C310.47,222.90 282.90,266.21 253.16,294.17 C248.67,298.39 245.00,302.24 245.00,302.71 C245.00,303.19 247.02,305.57 249.50,308.00 L 254.00 312.42 L 258.25 308.39 C271.80,295.55 282.63,286.11 311.01,262.44 C340.11,238.16 339.88,238.29 324.50,255.02 C321.20,258.61 316.48,263.79 314.00,266.53 C308.73,272.36 292.59,289.97 275.08,309.00 C268.25,316.42 260.82,324.53 258.58,327.00 C256.34,329.48 249.66,336.73 243.75,343.12 L 233.00 354.74 L 233.00 397.02 L 233.00 439.30 L 235.79 435.40 C237.32,433.26 240.47,428.48 242.78,424.79 ZM 184.48 295.37 C152.43,273.97 128.77,250.48 116.64,228.00 L 112.77 220.84 L 128.73 236.92 C137.52,245.76 145.25,253.00 145.93,253.00 C146.85,253.00 147.10,250.13 146.92,241.75 C146.57,225.52 146.90,218.21 147.91,220.00 C148.37,220.82 149.07,224.11 149.46,227.30 C151.39,243.36 158.50,259.14 168.34,269.22 C175.00,276.05 191.97,288.00 195.00,288.00 C198.33,288.00 214.44,276.32 221.79,268.58 C232.14,257.69 238.23,244.27 240.50,227.36 C241.84,217.38 242.51,219.99 243.00,237.00 L 243.50 254.50 L 259.75 238.30 C268.69,229.39 276.00,222.33 276.00,222.62 C276.00,223.49 267.87,237.21 265.12,241.00 C254.17,256.07 239.55,270.46 221.57,283.88 C211.74,291.21 197.76,300.77 195.73,301.55 C195.03,301.82 189.97,299.04 184.48,295.37 Z" fill="rgba(0,0,0,1)"/>
</g>
</svg>